<?xml version="1.0" standalone="no"?>
<!DOCTYPE svg PUBLIC "-//W3C//DTD SVG 20010904//EN"
 "http://www.w3.org/TR/2001/REC-SVG-20010904/DTD/svg10.dtd">
<svg version="1.0" xmlns="http://www.w3.org/2000/svg"
 width="64.000000pt" height="64.000000pt" viewBox="0 0 64.000000 64.000000"
 preserveAspectRatio="xMidYMid meet">
<metadata>
Created by potrace 1.15, written by Peter Selinger 2001-2017
</metadata>
<g transform="translate(0.000000,64.000000) scale(0.100000,-0.100000)"
fill="#000000" stroke="none">
<path d="M243 500 c-12 -5 -30 -21 -39 -35 -10 -15 -28 -31 -41 -36 -28 -10
-47 -54 -38 -87 3 -13 1 -30 -5 -37 -6 -8 -10 -31 -8 -52 2 -30 10 -42 35 -58
18 -11 32 -27 33 -36 0 -23 45 -61 72 -60 13 0 51 1 85 1 52 0 65 4 77 22 9
12 30 27 48 32 46 16 74 67 60 112 -6 20 -6 36 -1 40 16 10 9 54 -11 71 -11
10 -20 26 -20 36 0 47 -52 87 -112 87 -18 0 -51 2 -73 5 -22 2 -50 0 -62 -5z
m75 -91 c11 6 40 7 68 3 41 -6 50 -11 52 -31 2 -12 -6 -45 -17 -71 -27 -61
-26 -64 5 -78 30 -14 23 -32 -13 -32 -29 0 -63 25 -63 47 0 8 9 31 20 53 11
22 20 45 20 52 -1 7 -14 -12 -30 -43 -33 -65 -56 -87 -72 -71 -7 7 -5 24 7 56
21 55 12 75 -10 23 -8 -21 -22 -53 -29 -72 -12 -27 -21 -35 -40 -35 -42 0 -47
26 -20 111 25 80 51 106 87 87 10 -5 24 -5 35 1z"/>
</g>
</svg>
